# xmcd
#
# Track frame offsets:
#	150
#	21965
#	34029
#	55805
#	70496
#	87424
#	127999
#	150543
#	163620
#	181408
#	195888
#	230860
#	239335
#	252365
#	262734
#	276843
#	290684
#
# Disc length: 4233
#
# Revision: 2
# Processed by: cddbd v1.5.1PL0 Copyright (c) Steve Scherf et al.
# Submitted via: ExactAudioCopy v0.95a3
# Normalized: r0:TSWAP
#
DISCID=ed108711
DTITLE=Various Artist - The Best of the Blues Singers
DYEAR=1900
DGENRE=
TTITLE0=Joe Williams - Going to Chicago
TTITLE1=Joe Williams - Early in the Morning
TTITLE2=Ray Charles - Gerogia on my Mind
TTITLE3=Little Jr. Parker - The Outside Man
TTITLE4=Little Jr. Parker - Tax Man
TTITLE5=Muddy Waters - Kansas Citty
TTITLE6=Muddy Waters - Luther's Blues
TTITLE7=Muddy Waters - I've Got My Mojo Working
TTITLE8=T-Bone Walker - Come Baby
TTITLE9=Joe Turner - Flip Flop and Fly
TTITLE10=Memphis Slim - Medley (Nervouw-Summertime)
TTITLE11=Memphis Sliim - Baby Please Come Home
TTITLE12=Muddy Waters - Manish Boy
TTITLE13=Louis Armstrong - What a Wonderful World
TTITLE14=Muddy Waters - You're Gonna Need My Help
TTITLE15=Muddy Waters - Lonesome Road Blues
TTITLE16=John Lee Hooker - Five Long Years
EXTD=
EXTT0=
EXTT1=
EXTT2=
EXTT3=
EXTT4=
EXTT5=
EXTT6=
EXTT7=
EXTT8=
EXTT9=
EXTT10=
EXTT11=
EXTT12=
EXTT13=
EXTT14=
EXTT15=
EXTT16=
PLAYORDER=
